<?xml version="1.0" encoding="UTF-8"?>
<!DOCTYPE svg PUBLIC "-//W3C//DTD SVG 1.1//EN" "http://www.w3.org/Graphics/SVG/1.1/DTD/svg11.dtd">
<!-- Creator: CorelDRAW X7 -->
<svg xmlns="http://www.w3.org/2000/svg" xml:space="preserve" width="128.115mm" height="25.807mm" version="1.1" style="shape-rendering:geometricPrecision; text-rendering:geometricPrecision; image-rendering:optimizeQuality; fill-rule:evenodd; clip-rule:evenodd"
viewBox="0 0 12812 2581"
 xmlns:xlink="http://www.w3.org/1999/xlink">
 <defs>
  <style type="text/css">
   <![CDATA[
    .fil2 {fill:#E31E24}
    .fil1 {fill:#E31E24;fill-rule:nonzero}
    .fil0 {fill:#E30613;fill-rule:nonzero}
   ]]>
  </style>
 </defs>
 <g id="Layer_x0020_1">
  <metadata id="CorelCorpID_0Corel-Layer"/>
  <path class="fil0" d="M3060 1554c0,170 -150,308 -335,308 -185,0 -335,-138 -335,-308l0 -633 -330 0 0 628c0,170 -150,307 -335,307 -185,0 -335,-137 -335,-307l0 -627 -331 0 0 627c0,170 -150,307 -335,307 -185,0 -335,-137 -335,-307l0 -1514 -329 0 0 1366c0,336 297,608 664,608 200,0 379,-81 501,-210 121,129 300,210 500,210 199,0 376,-80 498,-207 121,130 301,212 502,212 367,0 664,-272 664,-608l0 -485 -329 0 0 633zm6859 -789l478 0 0 -184 -506 0c-329,0 -597,245 -597,547l0 167c0,279 103,453 240,560l-371 0c-176,-10 -315,-143 -315,-306l0 -134c0,-3 1,-6 1,-9l0 -484 -1 0 0 -893 -328 0 0 1372c0,3 0,6 0,9l0 144c0,165 -140,299 -318,307 -6,1 -11,1 -17,1 -4,0 -9,0 -13,-1 -174,-6 -313,-132 -322,-291l0 -415c0,-5 0,-11 0,-16 -2,-77 -20,-150 -50,-217 -100,-220 -337,-375 -613,-375 -201,0 -381,82 -503,211 -46,49 -83,104 -111,164 -32,72 -50,150 -50,232l0 400c0,170 -150,308 -335,308 -186,0 -336,-138 -336,-308l0 -632 -328 0 0 484c0,152 61,291 161,397 121,129 302,211 503,211 276,0 513,-155 613,-375l0 0 0 -1c33,-71 50,-150 50,-232l0 -399c0,-170 150,-308 336,-308 179,0 326,129 334,292l0 415c0,5 0,10 1,14 2,78 19,151 50,219 27,60 65,115 111,164 121,129 301,211 502,211 201,0 380,-82 502,-211 121,126 297,205 493,205l0 -1c5,1 11,1 15,1l795 0c19,1 37,2 54,2 280,0 353,-50 353,-50l0 -224c-37,90 -146,129 -329,129 -7,0 -14,-1 -22,-1l0 -9 -56 0c-156,-39 -300,-200 -300,-560 0,-493 229,-530 229,-530zm-5184 789c0,170 -150,308 -335,308 -185,0 -335,-138 -335,-308l0 -1519 -328 0 0 1371c0,152 60,291 161,397 121,129 301,211 502,211 367,0 664,-272 664,-608l0 -484 -329 0 0 632zm-334 631c-91,0 -164,67 -164,150 0,83 73,151 164,151 91,0 165,-68 165,-151 0,-83 -74,-150 -165,-150zm-3178 -1434c91,0 164,-67 164,-151 0,-83 -73,-150 -164,-150 -91,0 -164,67 -164,150 0,84 73,151 164,151zm999 0c91,0 165,-67 165,-151 0,-83 -74,-150 -165,-150 -90,0 -164,67 -164,150 0,84 74,151 164,151zm1000 0c91,0 164,-67 164,-151 0,-83 -73,-150 -164,-150 -91,0 -165,67 -165,150 0,84 74,151 165,151zm2750 1434c-90,0 -164,67 -164,150 0,83 74,151 164,151 91,0 165,-68 165,-151 0,-83 -74,-150 -165,-150zm611 150c0,83 -73,151 -164,151 -90,0 -164,-68 -164,-151 0,-83 74,-150 164,-150 91,0 164,67 164,150z"/>
  <path class="fil1" d="M11818 2080c-71,106 -177,139 -304,118 -87,-15 -153,-68 -174,-133 27,7 56,15 85,21 26,4 49,-7 67,-27 15,-16 28,-33 42,-50 73,-93 188,-98 270,-11 6,6 12,12 18,19 37,-47 85,-73 143,-80 45,-6 84,6 115,39 19,19 36,40 52,61 41,57 87,62 156,31 5,-3 10,-6 20,-6 -13,21 -24,43 -39,61 -39,46 -92,67 -150,76 -76,12 -148,3 -212,-40 -33,-22 -59,-52 -89,-79z"/>
  <path class="fil1" d="M12332 1696c0,57 -45,104 -102,104 -56,0 -101,-47 -101,-104 0,-57 45,-103 101,-103 57,0 102,46 102,103z"/>
  <path class="fil1" d="M11648 1775c-38,-98 -127,-151 -225,-145 -97,7 -159,56 -185,159 134,-90 266,-106 410,-14z"/>
  <path class="fil2" d="M10894 1366c0,-1 0,-3 1,-5l7 -30 2 -9 270 -1216 23 -106 1268 0 294 1323 10 45 1 7 1 16 0 1c0,19 0,39 0,58 0,64 1,127 1,190 0,519 -422,941 -941,941 -519,0 -941,-422 -941,-941 0,-63 1,-126 1,-189 0,-17 0,-34 0,-50l0 -2c0,-1 0,-2 0,-4l0 -2 0 -1c0,-3 1,-6 1,-6 0,-4 0,-8 1,-12l0 -4 1 -4zm232 -51l1410 0 -244 -1099 -922 0 -244 1099zm708 1050l0 0 4 0c4,0 8,0 11,0l2 0 1 0c8,0 17,-1 26,-1 1,0 2,-1 3,-1l1 0c11,-1 23,-2 34,-3 2,0 4,0 5,0 4,-1 8,-2 13,-2 8,-1 17,-3 25,-4 12,-2 24,-5 36,-7 3,-1 6,-2 9,-3l2 0c3,-1 7,-2 10,-3 4,-1 7,-2 11,-3 3,-1 6,-2 10,-3 7,-2 14,-4 21,-6 2,-1 5,-2 7,-3 4,-1 9,-2 13,-4 4,-2 9,-3 13,-5 4,-1 7,-3 11,-4 4,-2 8,-4 12,-5 5,-2 9,-4 13,-6 10,-4 21,-9 31,-15 5,-2 10,-5 15,-7 10,-6 20,-12 30,-17 10,-6 20,-12 29,-19 10,-6 19,-13 28,-19 9,-7 18,-14 27,-21 14,-11 27,-23 40,-35 3,-3 6,-6 9,-9l6 -6 1 -1c2,-1 3,-3 5,-5l1 -1 1 -1c1,-1 2,-2 3,-2 2,-3 5,-6 8,-9 4,-4 7,-8 11,-12 3,-3 6,-7 8,-10 6,-6 11,-12 16,-18 7,-9 14,-18 21,-27 3,-5 7,-10 10,-15 3,-4 6,-8 8,-12 1,-1 1,-2 2,-3 2,-3 5,-7 7,-11 1,-2 2,-3 3,-5 3,-3 5,-7 7,-11 3,-5 6,-10 9,-15 6,-10 11,-21 16,-31 3,-6 6,-11 9,-17 2,-4 4,-9 6,-13 2,-6 5,-12 7,-17 2,-5 4,-10 5,-12 1,-3 2,-6 3,-8 1,-4 2,-7 4,-11 7,-20 14,-41 19,-62 1,-4 2,-7 3,-10l0 -2c1,-3 2,-7 3,-10 0,-3 1,-6 1,-7 1,-2 1,-4 2,-7 0,-2 1,-5 1,-8 1,-5 2,-11 3,-16 1,-6 2,-11 3,-16 1,-5 1,-9 2,-14l0 -2c0,-2 1,-5 1,-8 0,-2 0,-3 1,-5 1,-12 2,-24 3,-35 0,-2 0,-3 0,-4 0,-4 0,-9 0,-13 1,-9 1,-19 1,-28l0 -36c0,-8 0,-16 0,-23 0,-12 0,-23 0,-34 0,-6 0,-11 0,-16l-1450 0c0,36 0,73 0,109 0,401 325,725 725,725 0,0 1,0 1,0l2 0z"/>
  <path class="fil2" d="M12153 432l0 135c0,85 -33,165 -94,225 -59,58 -138,91 -222,91l-4 0c-173,-3 -311,-147 -311,-319l0 -132c0,-6 0,-11 0,-14l5 -93 255 0 -6 103c0,1 0,3 0,4l0 135c0,17 7,32 19,44 12,11 27,18 44,17 34,-1 60,-31 60,-64l0 -132c0,-1 0,-2 -1,-4l-6 -103 256 0 5 92c0,5 0,10 0,15z"/>
 </g>
</svg>
